<svg xmlns="http://www.w3.org/2000/svg" width="45" height="44.99" viewBox="0 0 45 44.99">
  <g id="Group_50" data-name="Group 50" transform="translate(-1841.439 -758.255)">
    <g id="Group_48" data-name="Group 48">
      <g id="Group_47" data-name="Group 47">
        <g id="Group_46" data-name="Group 46">
          <g id="Group_45" data-name="Group 45">
            <g id="Group_44" data-name="Group 44">
              <g id="Group_43" data-name="Group 43">
                <path id="Path_127" data-name="Path 127" d="M1870.637,785.4l-6.7-3.142-6.7,3.142,6.7-12.38Z" fill="#fff"/>
              </g>
            </g>
          </g>
          <path id="Path_128" data-name="Path 128" d="M1876.117,777.331v.01a12.6,12.6,0,0,0-1.952-4.022l.431-1.6.707-2.649-2.645.711-1.7.456a12.554,12.554,0,0,0-3.607-1.662h.01l-3.421-10.322-3.42,10.322a12.632,12.632,0,0,0-3.829,1.817l-1.9-.508-2.646-.711.707,2.649.531,1.977a12.589,12.589,0,0,0-1.617,3.54v-.01l-10.323,3.424,10.323,3.417a12.6,12.6,0,0,0,1.472,3.308v0l-.63,2.35-.707,2.649,2.646-.71,2.234-.6a12.5,12.5,0,0,0,3.742,1.755l3.42,10.316,3.421-10.316a12.54,12.54,0,0,0,3.542-1.62l1.958.524,2.646.707-.71-2.646-.505-1.88a12.687,12.687,0,0,0,1.826-3.842l10.313-3.417.009,0Zm-12.178,13.875a10.453,10.453,0,1,1,10.451-10.451A10.453,10.453,0,0,1,1863.939,791.206Z" fill="#fff"/>
        </g>
      </g>
      <path id="Path_129" data-name="Path 129" d="M1865.915,761.19l.627,1.872a17.915,17.915,0,0,1,15.086,15.08l1.872.631A19.7,19.7,0,0,0,1865.915,761.19Zm-21.535,17.578,1.871-.627a17.917,17.917,0,0,1,15.121-15.084l.629-1.869A19.693,19.693,0,0,0,1844.38,778.768Zm37.257,4.529a17.919,17.919,0,0,1-15.13,15.15l-.629,1.87a19.7,19.7,0,0,0,17.628-17.646Zm-20.251,15.151a17.914,17.914,0,0,1-15.146-15.169l-1.867-.629a19.691,19.691,0,0,0,17.639,17.667Z" fill="#fff"/>
    </g>
    <g id="Group_49" data-name="Group 49">
      <path id="Path_130" data-name="Path 130" d="M1878.449,763.347h-.526v-.319h1.5v.319h-.527v1.464h-.446Zm1.282-.319h.36l.6.952.6-.952h.339v1.783h-.4v-1.094l-.451.709h-.213l-.451-.709v1.094h-.4Z" fill="#fff"/>
    </g>
  </g>
</svg>
