<svg xmlns="http://www.w3.org/2000/svg" width="255.416" height="93.11" viewBox="0 0 255.416 93.11"><defs><style>.a{fill:#fff;}.b{fill:#93d500;font-size:18px;font-family:Roboto-Italic, Roboto;font-style:italic;}</style></defs><g transform="translate(-876 -996)"><g transform="translate(876 1023.936)"><g transform="translate(0 51.586)"><path class="a" d="M674.364,1136.289c0-3.7,2.6-6.793,6.214-6.793a5.121,5.121,0,0,1,4.935,3.277l-1.458.859a3.7,3.7,0,0,0-3.6-2.6c-2.558,0-4.217,2.157-4.217,5.255s1.659,5.255,4.217,5.255a3.7,3.7,0,0,0,3.6-2.6l1.458.859a5.12,5.12,0,0,1-4.935,3.277C676.961,1143.083,674.364,1139.986,674.364,1136.289Z" transform="translate(-674.364 -1129.496)"/><path class="a" d="M698.532,1136.893h-6.074v5.974h-1.8v-13.188h1.8v5.795h6.074v-5.795h1.8v13.188h-1.8Z" transform="translate(-672.914 -1129.479)"/><path class="a" d="M710.291,1129.679h1.8l4.9,13.188h-1.938l-1.1-3.077h-5.615l-1.079,3.077H705.4Zm-1.539,8.752h4.776l-2.378-6.714Z" transform="translate(-671.602 -1129.479)"/><path class="a" d="M721.8,1129.679h1.678l6.534,10.251v-10.251h1.659v13.188h-1.678l-6.534-10.25v10.25H721.8Z" transform="translate(-670.143 -1129.479)"/><path class="a" d="M736.758,1136.31c0-3.877,2.638-6.814,6.175-6.814a5.254,5.254,0,0,1,5.036,3.3l-1.479.859a3.771,3.771,0,0,0-3.616-2.617c-2.558,0-4.236,2.138-4.236,5.295,0,2.977,1.479,5.215,4.555,5.215a5.09,5.09,0,0,0,2.178-.44,1.621,1.621,0,0,0,.9-1.7v-3.238h1.8v5.116a6.74,6.74,0,0,1-4.835,1.8C739.176,1143.083,736.758,1140.026,736.758,1136.31Z" transform="translate(-668.812 -1129.496)"/><path class="a" d="M753.953,1129.679h7.872v1.419h-6.073v4.276h5.554v1.418h-5.554v4.656h6.073v1.418h-7.872Z" transform="translate(-667.282 -1129.479)"/><path class="a" d="M774.322,1129.679H776l6.534,10.251v-10.251h1.659v13.188h-1.679l-6.533-10.25v10.25h-1.658Z" transform="translate(-665.469 -1129.479)"/><path class="a" d="M793.554,1129.679h1.8l4.895,13.188H798.31l-1.1-3.077H791.6l-1.079,3.077h-1.858Zm-1.539,8.752h4.776l-2.378-6.714Z" transform="translate(-664.193 -1129.479)"/><path class="a" d="M802.713,1129.679h1.918l3.9,11.05,3.916-11.05h1.819l-4.875,13.188h-1.8Z" transform="translate(-662.943 -1129.479)"/><path class="a" d="M820.134,1129.679h1.8v13.188h-1.8Z" transform="translate(-661.392 -1129.479)"/><path class="a" d="M828.712,1136.31c0-3.877,2.637-6.814,6.173-6.814a5.252,5.252,0,0,1,5.036,3.3l-1.479.859a3.771,3.771,0,0,0-3.616-2.617c-2.557,0-4.235,2.138-4.235,5.295,0,2.977,1.478,5.215,4.555,5.215a5.1,5.1,0,0,0,2.178-.44,1.623,1.623,0,0,0,.9-1.7v-3.238h1.8v5.116a6.744,6.744,0,0,1-4.835,1.8C831.129,1143.083,828.712,1140.026,828.712,1136.31Z" transform="translate(-660.629 -1129.496)"/><path class="a" d="M849.7,1129.679h1.8l4.9,13.188h-1.938l-1.1-3.077h-5.615l-1.079,3.077H844.8Zm-1.539,8.752h4.775l-2.377-6.714Z" transform="translate(-659.197 -1129.479)"/><path class="a" d="M862.576,1131.1h-4.115v-1.419h10.031v1.419h-4.116v11.769h-1.8Z" transform="translate(-657.982 -1129.479)"/><path class="a" d="M871.542,1136.289c0-3.676,2.618-6.793,6.055-6.793s6.054,3.117,6.054,6.793-2.618,6.794-6.054,6.794S871.542,1139.966,871.542,1136.289Zm10.23,0c0-3.1-1.718-5.255-4.175-5.255s-4.176,2.157-4.176,5.255,1.719,5.255,4.176,5.255S881.772,1139.386,881.772,1136.289Z" transform="translate(-656.818 -1129.496)"/><path class="a" d="M886.908,1129.679h3.656c3.458,0,5.356,1.259,5.356,3.557,0,1.778-1.22,2.938-3.4,3.2v.04c2,.14,3,.9,3,3.057v1.139a3.563,3.563,0,0,0,.6,2.2H894.24a3.21,3.21,0,0,1-.539-2.078v-1.1c0-1.9-.7-2.558-2.578-2.558h-2.417v5.735h-1.8Zm1.8,1.4v4.715h1.8c2.378,0,3.537-.759,3.537-2.357s-1.159-2.358-3.537-2.358Z" transform="translate(-655.45 -1129.479)"/></g><g transform="translate(0 3.399)"><path class="a" d="M693.166,1085.246c5.046,0,14.075,2.125,14.075,8.126v3.666h-4.886v-2.125c0-3.134-5.311-4.728-9.082-4.728-7.543,0-13.386,5.684-13.386,14.13,0,8.179,5.9,14.713,13.545,14.713a16.628,16.628,0,0,0,11.845-5.1l2.869,3.825a20.333,20.333,0,0,1-14.767,6.268c-11.208,0-19.015-8.659-19.015-19.706C674.364,1093.479,682.437,1085.246,693.166,1085.246Z" transform="translate(-674.364 -1085.246)"/><path class="a" d="M746.312,1118.762h1.805c.744,0,1.116-.425,1.169-1.168l2.55-31.762h5.471l8.817,19.865c.9,2.019,1.859,4.727,1.859,4.727h.107s.956-2.708,1.859-4.727l8.818-19.865h5.47l2.549,31.762c.053.744.426,1.168,1.169,1.168h1.753v4.568H784.98c-2.39,0-3.24-1.01-3.4-3.4l-1.541-19.813c-.159-2.23-.106-5.524-.106-5.524h-.107s-1.062,3.506-1.965,5.524l-7.6,16.465h-4.462l-7.6-16.465c-.9-1.965-2.019-5.577-2.019-5.577h-.106s.053,3.347-.107,5.577l-1.488,19.813c-.159,2.389-1.008,3.4-3.452,3.4h-4.727Z" transform="translate(-667.962 -1085.194)"/><path class="a" d="M792.445,1090.4h-3.452v-4.568h16.519c6.852,0,11.738,4.621,11.738,11.738s-4.886,11.9-11.738,11.9h-7.755v13.863h-5.312Zm12.217,14.5c4.408,0,7.116-2.815,7.116-7.33s-2.708-7.17-7.064-7.17h-6.957v14.5Z" transform="translate(-664.163 -1085.194)"/><path class="a" d="M813.772,1118.762h.744c.956,0,1.434-.212,1.753-1.168l11.738-31.762h5.578l11.738,31.762a1.53,1.53,0,0,0,1.752,1.168h.8v4.568H844.9c-2.655,0-3.505-.638-4.355-3.081l-2.815-7.7H823.918l-2.816,7.7c-.9,2.443-1.752,3.081-4.408,3.081h-2.922Zm22.628-10.676-4.09-11.42c-.691-1.965-1.488-5.258-1.488-5.258h-.106s-.744,3.292-1.434,5.258l-4.09,11.42Z" transform="translate(-661.958 -1085.194)"/><path class="a" d="M850.416,1114.671s3.825,4.515,9.4,4.515c3.505,0,6.426-2.125,6.426-5.578,0-7.86-18.112-6.639-18.112-18.324,0-5.63,4.94-10.038,12-10.038,3.983,0,10.676,1.806,10.676,6.9v3.082h-4.886v-1.753c0-1.966-2.815-3.4-5.79-3.4-4.036,0-6.586,2.231-6.586,5.047,0,7.6,18.06,5.9,18.06,18.219,0,5.736-4.463,10.677-11.9,10.677a16.761,16.761,0,0,1-12.428-5.578Z" transform="translate(-658.977 -1085.246)"/><path class="a" d="M876.415,1114.671s3.824,4.515,9.4,4.515c3.506,0,6.427-2.125,6.427-5.578,0-7.86-18.112-6.639-18.112-18.324,0-5.63,4.94-10.038,12-10.038,3.983,0,10.675,1.806,10.675,6.9v3.082h-4.886v-1.753c0-1.966-2.815-3.4-5.789-3.4-4.037,0-6.587,2.231-6.587,5.047,0,7.6,18.059,5.9,18.059,18.219,0,5.736-4.462,10.677-11.9,10.677a16.762,16.762,0,0,1-12.429-5.578Z" transform="translate(-656.663 -1085.246)"/><g transform="translate(244.121)"><path class="a" d="M900.286,1085.971h-1.749v-.725h4.52v.725h-1.748v4.82h-1.023Zm3.859-.725h.849l2.017,3.34,2.017-3.34h.8v5.545h-.914v-3.906l-1.654,2.709h-.551l-1.654-2.709v3.906h-.914Z" transform="translate(-898.537 -1085.246)"/></g></g><g transform="translate(32.307)"><g transform="translate(15.64 14.619)"><path class="a" d="M731.658,1107.81l-6.636-3.113-6.629,3.113,6.629-12.261Z" transform="translate(-718.393 -1095.549)"/></g><path class="a" d="M748.575,1104.4l-10.212-3.386a12.491,12.491,0,0,0-1.927-3.978l.419-1.578.7-2.621-2.621.7-1.68.451a12.619,12.619,0,0,0-3.56-1.65l-3.393-10.22-3.386,10.22a12.342,12.342,0,0,0-3.788,1.807l-1.886-.5-2.62-.7.7,2.62.521,1.957a12.224,12.224,0,0,0-1.594,3.5l-10.22,3.386,10.22,3.386a12.2,12.2,0,0,0,1.453,3.274l-.624,2.328-.7,2.629,2.629-.7,2.21-.593a12.725,12.725,0,0,0,3.7,1.737l3.386,10.213.008.007,3.386-10.22a12.425,12.425,0,0,0,3.5-1.611l1.934.521,2.628.7-.7-2.62-.505-1.862a12.431,12.431,0,0,0,1.808-3.8ZM726.3,1114.751a10.347,10.347,0,1,1,10.354-10.346A10.347,10.347,0,0,1,726.3,1114.751Z" transform="translate(-704.031 -1082.125)"/></g><path class="a" d="M728.025,1084.8l.621,1.854a17.735,17.735,0,0,1,14.937,14.931l1.854.625A19.5,19.5,0,0,0,728.025,1084.8ZM706.7,1102.2l1.852-.621a17.742,17.742,0,0,1,14.972-14.936l.623-1.85A19.5,19.5,0,0,0,706.7,1102.2Zm36.889,4.484a17.74,17.74,0,0,1-14.981,15l-.622,1.851a19.5,19.5,0,0,0,17.454-17.472Zm-20.05,15a17.739,17.739,0,0,1-15-15.02l-1.848-.622a19.5,19.5,0,0,0,17.464,17.492Z" transform="translate(-671.487 -1081.887)"/></g><text class="b" transform="translate(895.805 996)"><tspan x="-45.743" y="19">Powered by</tspan></text></g></svg>