<svg xmlns="http://www.w3.org/2000/svg" width="157" height="81.509" viewBox="0 0 157 81.509"><defs><style>.a{fill:#223f99;}.b{fill:#3c4e69;}.c{fill:#231f20;}.d,.e{fill:#791217;}.d,.f{fill-rule:evenodd;}.f,.g{fill:#fff;}</style></defs><path class="a" d="M52.709,198.575v-23.74H78.381v4.916H57.467V193.66l10.906.063,3.573,4.853Z" transform="translate(-52.709 -123.891)"/><path class="a" d="M77.472,208.822l-.029-8.141-6.21-7.725H81.81v15.866Z" transform="translate(-56.214 -127.321)"/><path class="a" d="M81.216,190.743l-13.123.026v-4.184H81.216Z" transform="translate(-55.62 -126.115)"/><path class="a" d="M154.251,174.835h22.035v3.992H158.657v6.308h8.816v3.991h-8.816v5.534h17.629v3.994H154.251Z" transform="translate(-71.925 -123.891)"/><path class="a" d="M87.655,174.835h22.037v3.94H92.061v5.557h8.815v4.747H92.061v5.554h17.631v3.942H87.655Z" transform="translate(-59.322 -123.891)"/><path class="b" d="M52.709,120.137H70.9l7,25.479,6.97-25.479h18.173V162H91.719V130.079L83,162H72.742l-8.71-31.921V162H52.709Z" transform="translate(-52.709 -113.54)"/><path class="b" d="M117.272,120.137h11.277v14.651h29.282V120.137H169.6V162H157.831V145.064H128.549V162H117.272Z" transform="translate(-64.927 -113.54)"/><path class="b" d="M183.871,147.986l15.5-.771a8.385,8.385,0,0,0,2.055,4.572q2.515,2.536,7.2,2.534a9.49,9.49,0,0,0,5.383-1.291,3.689,3.689,0,0,0,1.88-3.016A3.619,3.619,0,0,0,214.1,147.1c-1.2-.86-3.984-1.66-8.355-2.423q-10.725-1.921-15.285-5.082-4.605-3.172-4.607-8.086a9.455,9.455,0,0,1,2.354-6.1,15.477,15.477,0,0,1,7.087-4.5q4.731-1.645,12.973-1.653,10.123,0,15.417,2.992A12.4,12.4,0,0,1,230,131.736l-15.36.717a6.238,6.238,0,0,0-2.567-4.108,9.809,9.809,0,0,0-5.428-1.289,7.8,7.8,0,0,0-4.278.954,2.782,2.782,0,0,0-1.453,2.325,2.231,2.231,0,0,0,1.213,1.8c.756.559,2.582,1.073,5.46,1.543q10.689,1.83,15.306,3.7a15.628,15.628,0,0,1,6.74,4.638,10.106,10.106,0,0,1,2.109,6.2,11.4,11.4,0,0,1-2.827,7.418,17.169,17.169,0,0,1-7.845,5.156,39.078,39.078,0,0,1-12.688,1.754q-13.471,0-18.64-4.11a14.933,14.933,0,0,1-5.871-10.451" transform="translate(-77.531 -113.373)"/><path class="a" d="M139.354,198.612l-22.082-23.58h5.661l22.083,23.58Z" transform="translate(-64.927 -123.929)"/><path class="a" d="M117.272,198.846V175.86l4.126,4.379v18.607Z" transform="translate(-64.927 -124.085)"/><path class="a" d="M150.068,197.6l-4.5-4.836v-17.93h4.5Z" transform="translate(-70.283 -123.891)"/><path class="c" d="M53.288,112.1h2.987a4.6,4.6,0,0,1,1.428.182,2.36,2.36,0,0,1,.9.524,2.03,2.03,0,0,1,.515.794,2.874,2.874,0,0,1,.16.96,2.619,2.619,0,0,1-.238,1.232,2.11,2.11,0,0,1-.659.733,2.387,2.387,0,0,1-.906.394,6.046,6.046,0,0,1-1.2.135H53.288Zm2.011,1.122v2.706h.493a2.648,2.648,0,0,0,.9-.107.821.821,0,0,0,.418-.371,1.827,1.827,0,0,0,.15-.859,1.38,1.38,0,0,0-.337-1.078,1.709,1.709,0,0,0-1.118-.29Z" transform="translate(-52.818 -112.02)"/><path class="c" d="M63.093,112.1h5.389v1.057H65.108v.788h3.129v1.01H65.108v.977h3.471v1.121H63.093Z" transform="translate(-54.674 -112.02)"/><path class="c" d="M72.306,112.1h3.342a2.78,2.78,0,0,1,1.636.4,1.307,1.307,0,0,1,.543,1.125,1.358,1.358,0,0,1-.592,1.172,3.128,3.128,0,0,1-1.809.423h-1.1v1.837h-2.02Zm2.02,2.112h.493a1.581,1.581,0,0,0,.816-.154.455.455,0,0,0,.235-.394.488.488,0,0,0-.2-.395,1.3,1.3,0,0,0-.768-.162h-.572Z" transform="translate(-56.417 -112.02)"/><path class="c" d="M84.431,116.24H82.148l-.317.817H79.778l2.446-4.953h2.193l2.445,4.953H84.757Zm-.417-1.071-.718-1.78-.711,1.78Z" transform="translate(-57.831 -112.02)"/><path class="c" d="M90.458,117.057V112.1H93.81a6.324,6.324,0,0,1,1.424.122,1.55,1.55,0,0,1,.795.452,1.14,1.14,0,0,1,.3.8,1.128,1.128,0,0,1-.23.711,1.666,1.666,0,0,1-.636.486,2.954,2.954,0,0,1-.706.2,2.365,2.365,0,0,1,.524.183,1.861,1.861,0,0,1,.322.26,2.015,2.015,0,0,1,.281.307l.974,1.435H94.587l-1.075-1.513a1.233,1.233,0,0,0-.364-.382,1.033,1.033,0,0,0-.493-.115h-.178v2.01Zm2.02-2.945h.848a3.891,3.891,0,0,0,.533-.068.576.576,0,0,0,.326-.155.394.394,0,0,0,.126-.288.411.411,0,0,0-.2-.368,1.52,1.52,0,0,0-.75-.128h-.884Z" transform="translate(-59.853 -112.02)"/><path class="c" d="M99.606,112.1h6.112v1.223h-2.05v3.73h-2.011v-3.73H99.606Z" transform="translate(-61.584 -112.02)"/><path class="c" d="M109.361,112.1h2.644l1.02,3.014,1.013-3.014h2.643v4.953h-1.647V113.28l-1.269,3.777h-1.49l-1.267-3.777v3.777h-1.647Z" transform="translate(-63.43 -112.02)"/><path class="c" d="M121.087,112.1h5.389v1.057H123.1v.788h3.13v1.01H123.1v.977h3.471v1.121h-5.487Z" transform="translate(-65.649 -112.02)"/><path class="c" d="M130.328,112.1H132.2l2.45,2.74V112.1h1.9v4.953h-1.9l-2.437-2.719v2.719h-1.891Z" transform="translate(-67.398 -112.02)"/><path class="c" d="M140.209,112.1h6.113v1.223H144.27v3.73h-2.011v-3.73h-2.051Z" transform="translate(-69.268 -112.02)"/><path class="c" d="M154.54,114.564a2.241,2.241,0,0,1,.887-1.889A4.007,4.007,0,0,1,157.9,112a4.088,4.088,0,0,1,2.5.664,2.2,2.2,0,0,1,.879,1.86,2.452,2.452,0,0,1-.384,1.424,2.49,2.49,0,0,1-1.109.865,4.636,4.636,0,0,1-1.81.309,5.321,5.321,0,0,1-1.822-.267,2.574,2.574,0,0,1-1.169-.845,2.287,2.287,0,0,1-.448-1.446m2.01.006a1.386,1.386,0,0,0,.367,1.078,1.7,1.7,0,0,0,2,.006,1.51,1.51,0,0,0,.355-1.152,1.29,1.29,0,0,0-.371-1.022,1.481,1.481,0,0,0-1.005-.322,1.414,1.414,0,0,0-.977.328,1.39,1.39,0,0,0-.369,1.084" transform="translate(-71.98 -112)"/><path class="c" d="M165.324,112.1H170.3v1.064h-2.952v.865h2.521v1h-2.521v2.024h-2.02Z" transform="translate(-74.021 -112.02)"/><path class="c" d="M178.807,112.1h2.987a4.594,4.594,0,0,1,1.427.182,2.354,2.354,0,0,1,.9.524,2.021,2.021,0,0,1,.515.794,2.873,2.873,0,0,1,.16.96,2.63,2.63,0,0,1-.237,1.232,2.121,2.121,0,0,1-.66.733,2.389,2.389,0,0,1-.9.394,6.059,6.059,0,0,1-1.2.135h-2.987Zm2.011,1.122v2.706h.492a2.657,2.657,0,0,0,.9-.107.819.819,0,0,0,.417-.371,1.825,1.825,0,0,0,.151-.859,1.38,1.38,0,0,0-.338-1.078,1.707,1.707,0,0,0-1.118-.29Z" transform="translate(-76.572 -112.02)"/><path class="c" d="M188.611,112.1H194v1.057h-3.374v.788h3.13v1.01h-3.13v.977H194.1v1.121h-5.486Z" transform="translate(-78.428 -112.02)"/><path class="c" d="M197.846,112.1h4.972v1.064h-2.952v.865h2.522v1h-2.522v2.024h-2.019Z" transform="translate(-80.176 -112.02)"/><path class="c" d="M206.43,112.1h5.388v1.057h-3.373v.788h3.129v1.01h-3.129v.977h3.471v1.121H206.43Z" transform="translate(-81.8 -112.02)"/><path class="c" d="M215.669,112.1h1.878l2.45,2.74V112.1h1.9v4.953H220l-2.437-2.719v2.719h-1.891Z" transform="translate(-83.549 -112.02)"/><path class="c" d="M225.683,115.4l1.913-.091a.964.964,0,0,0,.254.541,1.225,1.225,0,0,0,.888.3A1.193,1.193,0,0,0,229.4,116a.432.432,0,0,0,.233-.357.425.425,0,0,0-.221-.345,3.093,3.093,0,0,0-1.03-.287,5.146,5.146,0,0,1-1.887-.6,1.112,1.112,0,0,1-.569-.956,1.091,1.091,0,0,1,.292-.722,1.908,1.908,0,0,1,.874-.533,5.243,5.243,0,0,1,1.6-.195,4.094,4.094,0,0,1,1.9.353,1.474,1.474,0,0,1,.78,1.124l-1.9.084a.733.733,0,0,0-.317-.486,1.25,1.25,0,0,0-.668-.152,1,1,0,0,0-.529.113.324.324,0,0,0-.177.276.263.263,0,0,0,.146.213,2,2,0,0,0,.675.182,10.494,10.494,0,0,1,1.888.438,1.916,1.916,0,0,1,.829.549,1.153,1.153,0,0,1,.261.734,1.319,1.319,0,0,1-.346.878,2.129,2.129,0,0,1-.968.61,5.012,5.012,0,0,1-1.567.208,3.965,3.965,0,0,1-2.3-.486,1.751,1.751,0,0,1-.723-1.237" transform="translate(-85.444 -112)"/><path class="c" d="M235.328,112.1h5.388v1.057h-3.373v.788h3.129v1.01h-3.129v.977h3.471v1.121h-5.486Z" transform="translate(-87.269 -112.02)"/><path class="d" d="M150.98,125l-.038,2.178a22.306,22.306,0,0,0-2.277-.278l-.038-1.9a2.69,2.69,0,0,1-1.454-2.4,2.63,2.63,0,1,1,5.259,0,2.69,2.69,0,0,1-1.452,2.4" transform="translate(-70.586 -113.499)"/><path class="d" d="M150.2,141l.042-2.59a9.754,9.754,0,0,0,2.408-1.348c1.988-1.591,1.322-3.107-.011-4.053a9.633,9.633,0,0,0-3.9-1.338,8.79,8.79,0,0,0-3.459.011,9.47,9.47,0,0,1-3.309.945,2.32,2.32,0,0,1-1.724-.449c-.272-.28-.067-1.282.961-2a4.809,4.809,0,0,1,3.445-.731,23.951,23.951,0,0,1,3.578-.148c2.367.212,5.2,1.084,6.612,2.492a4.331,4.331,0,0,1,.23,6.275c-1.189,1.381-3.152,2.188-4.878,2.939" transform="translate(-69.256 -115.265)"/><path class="d" d="M151.24,133.132l-.268,15.278c-.507-.195-1.056-.383-1.575-.552l-.3-15.1a10.386,10.386,0,0,1,2.145.37" transform="translate(-70.949 -115.929)"/><path class="e" d="M149.87,170.854a2.782,2.782,0,0,0,.176,1.212.4.4,0,0,0,.265.209c.152.026.31-.083.41-.324a2.436,2.436,0,0,0,.114-.748c-.174-.053-.349-.112-.525-.177-.148-.055-.3-.113-.441-.173" transform="translate(-71.096 -123.138)"/><path class="e" d="M151.027,168.37a10.261,10.261,0,0,1-1.5-1.147c-1.249-1.164-2.047-2.594-1.191-3.788l-.054-3.006a4.751,4.751,0,0,0-2.494,3.352c-.317,1.871,1.224,3.746,3.739,4.83a10.865,10.865,0,0,0,1.39.488c.565.157.766.045.739-.118s-.3-.4-.633-.61" transform="translate(-70.317 -121.165)"/><path class="e" d="M150.809,166.135l.185-10.279c-.223-.106-.472-.212-.741-.321-.219-.088-.451-.178-.692-.268l.2,9.728c.163.217.33.422.494.6a4.925,4.925,0,0,0,.556.538" transform="translate(-71.037 -120.188)"/><path class="e" d="M152.292,151.238c-.071-.045-.144-.09-.221-.135a19.018,19.018,0,0,0-3.052-1.252l-.237-.085c-1.512-.559-3.228-1.27-3.269-2.813-.04-1.487.88-2.162,1.994-2.671l-.049-2.7a9.6,9.6,0,0,0-2.88,1.653,4.621,4.621,0,0,0-1.536,3.564c.041,3.3,3.511,4.585,5.975,5.5l.135.049c1.189.44,2.35.693,2.342,1.795,0,.422-.353.9-1.172,1.423l-.049,2.6a15.484,15.484,0,0,0,2.016-1.4,4.012,4.012,0,0,0,1.7-2.839,2.994,2.994,0,0,0-1.7-2.685" transform="translate(-69.804 -117.599)"/><path class="f" d="M142.487,131.717a.386.386,0,1,0-.379-.386.382.382,0,0,0,.379.386" transform="translate(-69.627 -115.585)"/><path class="a" d="M200.045,180.752a14.548,14.548,0,0,0-8.04-2.581,8.6,8.6,0,0,0-4.167.818,2.51,2.51,0,0,0-1.446,2.266,2.3,2.3,0,0,0,1.544,2.2,11.453,11.453,0,0,0,3.6.692q3.678.315,4.854.5a9.164,9.164,0,0,1,4.927,2.109,5.806,5.806,0,0,1,1.594,4.375,6.739,6.739,0,0,1-2.5,5.6q-2.5,1.982-7.183,1.983-6.791,0-10.566-3.84l1.617-2.738a14.257,14.257,0,0,0,8.973,3.273,8.913,8.913,0,0,0,4.829-1.1,3.324,3.324,0,0,0,1.643-2.927,2.835,2.835,0,0,0-2.157-2.9,36.811,36.811,0,0,0-6.079-.787q-4.389-.378-6.154-1.511a4.864,4.864,0,0,1-2.058-4.437,6.121,6.121,0,0,1,2.34-5.068,10.4,10.4,0,0,1,6.608-1.857,14.126,14.126,0,0,1,9.61,3.368Z" transform="translate(-77.302 -123.891)"/><path class="a" d="M235.322,180.752a14.551,14.551,0,0,0-8.041-2.581,8.6,8.6,0,0,0-4.167.818,2.511,2.511,0,0,0-1.446,2.266,2.3,2.3,0,0,0,1.544,2.2,11.446,11.446,0,0,0,3.6.692q3.678.315,4.855.5a9.172,9.172,0,0,1,4.928,2.109,5.809,5.809,0,0,1,1.593,4.375,6.739,6.739,0,0,1-2.5,5.6q-2.5,1.982-7.183,1.983-6.791,0-10.566-3.84l1.618-2.738a14.251,14.251,0,0,0,8.972,3.273,8.917,8.917,0,0,0,4.83-1.1A3.325,3.325,0,0,0,235,191.391a2.835,2.835,0,0,0-2.157-2.9,36.841,36.841,0,0,0-6.08-.787q-4.388-.378-6.154-1.511a4.866,4.866,0,0,1-2.058-4.437,6.124,6.124,0,0,1,2.341-5.068,10.4,10.4,0,0,1,6.607-1.857,14.13,14.13,0,0,1,9.611,3.368Z" transform="translate(-83.978 -123.891)"/><rect class="a" width="4.442" height="23.819" transform="translate(127.923 50.944)"/><rect class="e" width="126.501" height="6.061" transform="translate(27.711 75.448)"/><path class="g" d="M88.58,206.5h2.078l.8,2.155.8-2.155h2.077v3.541H93.037v-2.7l-1,2.7H90.869l-.995-2.7v2.7H88.58Z" transform="translate(-59.497 -129.883)"/><rect class="g" width="1.583" height="3.541" transform="translate(36.619 76.613)"/><path class="g" d="M102.107,206.5h1.58v2.669h2.466v.872h-4.046Z" transform="translate(-62.057 -129.883)"/><rect class="g" width="1.583" height="3.541" transform="translate(45.591 76.613)"/><path class="g" d="M112.731,206.5h4.8v.874h-1.611v2.667h-1.58V207.37h-1.611Z" transform="translate(-64.068 -129.883)"/><path class="g" d="M122.843,209.453h-1.793l-.249.585h-1.613l1.921-3.541h1.724l1.921,3.541H123.1Zm-.328-.766-.564-1.272-.559,1.272Z" transform="translate(-65.289 -129.883)"/><path class="g" d="M127.579,210.038V206.5h2.633a5.416,5.416,0,0,1,1.12.087,1.248,1.248,0,0,1,.624.323.777.777,0,0,1,.238.573.76.76,0,0,1-.182.508,1.292,1.292,0,0,1-.5.346,2.518,2.518,0,0,1-.555.141,1.961,1.961,0,0,1,.411.13,2.114,2.114,0,0,1,.474.407l.765,1.026h-1.785l-.845-1.082a.941.941,0,0,0-.286-.273.885.885,0,0,0-.387-.082h-.139v1.437Zm1.587-2.106h.666a3.363,3.363,0,0,0,.419-.049.472.472,0,0,0,.256-.11.275.275,0,0,0,.1-.206.29.29,0,0,0-.156-.263,1.291,1.291,0,0,0-.589-.091h-.694Z" transform="translate(-66.878 -129.883)"/><path class="g" d="M134.271,206.5h1.755l1.03,1.194,1.032-1.194h1.746l-1.988,2.058v1.483h-1.584v-1.483Z" transform="translate(-68.144 -129.883)"/><path class="g" d="M146.469,206.5h1.58v1.239h1.727V206.5h1.587v3.541h-1.587v-1.432h-1.727v1.432h-1.58Z" transform="translate(-70.453 -129.883)"/><path class="g" d="M154.676,206.5h4.234v.756h-2.651v.563h2.458v.722h-2.458v.7h2.728v.8h-4.311Z" transform="translate(-72.006 -129.883)"/><path class="g" d="M164.947,209.453h-1.793l-.249.585h-1.613l1.921-3.541h1.724l1.921,3.541H165.2Zm-.328-.766-.564-1.272-.559,1.272Z" transform="translate(-73.258 -129.883)"/><path class="g" d="M169.657,206.5h1.58v2.669H173.7v.872h-4.046Z" transform="translate(-74.841 -129.883)"/><path class="g" d="M175.524,206.5h4.8v.874h-1.611v2.667h-1.58V207.37h-1.611Z" transform="translate(-75.951 -129.883)"/><path class="g" d="M183.218,206.5h1.58v1.239h1.726V206.5h1.588v3.541h-1.588v-1.432H184.8v1.432h-1.58Z" transform="translate(-77.407 -129.883)"/><path class="g" d="M194.909,208.852l1.5-.066a.665.665,0,0,0,.2.387,1.258,1.258,0,0,0,1.219.105.311.311,0,0,0,.183-.255.3.3,0,0,0-.174-.246,2.6,2.6,0,0,0-.809-.205,4.374,4.374,0,0,1-1.484-.431.789.789,0,0,1-.446-.683.744.744,0,0,1,.229-.516,1.54,1.54,0,0,1,.687-.382,4.529,4.529,0,0,1,1.258-.138,3.492,3.492,0,0,1,1.494.251,1.063,1.063,0,0,1,.612.8l-1.489.06a.524.524,0,0,0-.25-.348,1.062,1.062,0,0,0-.525-.109.841.841,0,0,0-.415.081.23.23,0,0,0-.139.2c0,.056.038.106.115.152a1.676,1.676,0,0,0,.529.131,9.066,9.066,0,0,1,1.484.313,1.508,1.508,0,0,1,.652.393.772.772,0,0,1,.2.524.894.894,0,0,1-.272.628,1.7,1.7,0,0,1-.76.436,4.31,4.31,0,0,1-1.232.149,3.365,3.365,0,0,1-1.806-.349,1.234,1.234,0,0,1-.568-.884" transform="translate(-79.62 -129.869)"/><path class="g" d="M201.855,206.5h1.755l1.03,1.194,1.032-1.194h1.745l-1.988,2.058v1.483h-1.584v-1.483Z" transform="translate(-80.934 -129.883)"/><path class="g" d="M209.507,208.852l1.5-.066a.665.665,0,0,0,.2.387,1.258,1.258,0,0,0,1.219.105.309.309,0,0,0,.183-.255.3.3,0,0,0-.175-.246,2.576,2.576,0,0,0-.809-.205,4.357,4.357,0,0,1-1.481-.431.788.788,0,0,1-.447-.683.747.747,0,0,1,.228-.516,1.543,1.543,0,0,1,.688-.382,4.523,4.523,0,0,1,1.257-.138,3.492,3.492,0,0,1,1.494.251,1.061,1.061,0,0,1,.612.8l-1.489.06a.528.528,0,0,0-.251-.348,1.062,1.062,0,0,0-.525-.109.842.842,0,0,0-.415.081.23.23,0,0,0-.139.2c0,.056.038.106.116.152a1.669,1.669,0,0,0,.53.131,9.056,9.056,0,0,1,1.483.313,1.512,1.512,0,0,1,.653.393.775.775,0,0,1,.2.524.894.894,0,0,1-.272.628,1.7,1.7,0,0,1-.76.436,4.307,4.307,0,0,1-1.232.149,3.359,3.359,0,0,1-1.806-.349,1.237,1.237,0,0,1-.569-.884" transform="translate(-82.382 -129.869)"/><path class="g" d="M216.647,206.5h4.8v.874h-1.612v2.667h-1.58V207.37h-1.611Z" transform="translate(-83.734 -129.883)"/><path class="g" d="M224.329,206.5h4.234v.756h-2.651v.563h2.458v.722h-2.458v.7h2.727v.8h-4.31Z" transform="translate(-85.187 -129.883)"/><path class="g" d="M231.555,206.5h2.078l.8,2.155.795-2.155h2.077v3.541h-1.293v-2.7l-1,2.7h-1.172l-1-2.7v2.7h-1.294Z" transform="translate(-86.555 -129.883)"/><g transform="translate(152.376 46.226)"><path class="c" d="M245.277,171.267a2.313,2.313,0,1,1-2.3-2.251A2.261,2.261,0,0,1,245.277,171.267Zm-4.048,0a1.744,1.744,0,0,0,1.757,1.8,1.723,1.723,0,0,0,1.715-1.784,1.737,1.737,0,1,0-3.472-.013Zm1.386,1.18h-.522V170.2a4.627,4.627,0,0,1,.865-.068,1.4,1.4,0,0,1,.782.165.621.621,0,0,1,.22.494.576.576,0,0,1-.466.521v.028a.663.663,0,0,1,.411.549,1.711,1.711,0,0,0,.165.563h-.563a1.893,1.893,0,0,1-.178-.549c-.041-.246-.179-.357-.467-.357h-.246Zm.013-1.276h.247c.289,0,.521-.1.521-.329,0-.206-.151-.343-.48-.343a1.313,1.313,0,0,0-.289.027Z" transform="translate(-240.652 -169.016)"/></g></svg>