<svg xmlns="http://www.w3.org/2000/svg" viewBox="0 0 51.64 42.68"><defs><style>.cls-1,.cls-2{fill:none;stroke-linecap:round;stroke-linejoin:round;stroke-width:1.5px;}.cls-1{stroke:#003b71;}.cls-2{stroke:#fff;}</style></defs><g id="Layer_2" data-name="Layer 2"><g id="Layer_9" data-name="Layer 9"><path class="cls-1" d="M35.32,12.31c3.12.79,5.36,2.92,5.36,5.42a3.24,3.24,0,0,1-2.74,3.32c-2.25.55-3.49,1.38-3.78,2.53a2.35,2.35,0,0,0,.25,1.7c-2.2-.63-7.67-2.47-9.34-5.66"/><path class="cls-2" d="M16.37,12.82A4.3,4.3,0,0,1,12.73,8.4c0-4.22,4.8-7.65,10.71-7.65a12.36,12.36,0,0,1,8.92,3.4,6.11,6.11,0,0,1,1.79,4.24c-.06,5.82-9.62,9.07-13.08,10.05a3.17,3.17,0,0,0,.33-2.25C21,14.65,19.36,13.55,16.37,12.82Z"/><circle class="cls-1" cx="42.38" cy="27.85" r="4.94"/><path class="cls-1" d="M50.89,41.93c0-4-3.81-6.26-8.51-6.26S33.87,38,33.87,41.93"/><line class="cls-2" x1="30.23" y1="5.93" x2="17.15" y2="5.93"/><line class="cls-2" x1="30.23" y1="9.81" x2="17.15" y2="9.81"/><path class="cls-2" d="M12.13,18.1a6.62,6.62,0,1,0,6.62,6.61A6.61,6.61,0,0,0,12.13,18.1Z"/><path class="cls-2" d="M23.52,41.58c0-4.1-3-6.85-7.28-7.89L12.13,37,8,33.69c-4.26,1-7.28,3.79-7.28,7.89"/></g></g></svg>