<svg xmlns="http://www.w3.org/2000/svg" viewBox="0 0 52.47 40.39"><defs><style>.cls-1,.cls-2{fill:none;stroke-linecap:round;stroke-linejoin:round;stroke-width:1.5px;}.cls-1{stroke:#fff;}.cls-2{stroke:#006e43;}</style></defs><g id="Layer_2" data-name="Layer 2"><g id="Layer_9" data-name="Layer 9"><path class="cls-1" d="M6.89,8.24A7.49,7.49,0,1,0,14.38.75,7.49,7.49,0,0,0,6.89,8.24Z"/><polygon class="cls-2" points="51.72 30.9 28.25 25.4 28.25 6 51.72 10.73 51.72 30.9"/><polyline class="cls-2" points="25.93 33.26 23.68 32.72 30.65 29.51 48.96 33.91 41.99 37.12 32.97 34.95"/><line class="cls-2" x1="36.42" y1="27.31" x2="36.42" y2="30.9"/><line class="cls-2" x1="40.93" y1="28.4" x2="40.93" y2="31.99"/><path class="cls-2" d="M45.12,26.56c0-2.29-1.59-4.15-3.8-5.17L39.43,23l-1.89-2.47c-2.21.05-3.8,1.21-3.8,3.49"/><path class="cls-2" d="M42.89,15.78a4.76,4.76,0,0,0-3.46-4.52,2.82,2.82,0,0,0-3.46,3,4.75,4.75,0,0,0,3.46,4.52A2.81,2.81,0,0,0,42.89,15.78Z"/><path class="cls-1" d="M11.39,28.84c1.13,2.36,3,6.13,4,8.31A3.93,3.93,0,0,0,19,39.64H30c2.14,0,3.38-1,3.38-3a2.64,2.64,0,0,0-1.92-2.81l-9.6-1L18,23.77c-1.58-3.89-4.36-5.58-7.38-5.58-4.14,0-7.27,2.43-8.15,8L.75,38.6H13.37"/></g></g></svg>