<svg xmlns="http://www.w3.org/2000/svg" width="123" height="54.516" viewBox="0 0 123 54.516">
  <g id="Group_40" data-name="Group 40" transform="translate(-245.698 -760.95)">
    <g id="Group_1357" data-name="Group 1357" transform="translate(245.698 784.305)">
      <g id="Group_1339" data-name="Group 1339" transform="translate(0 24.664)">
        <g id="Group_1324" data-name="Group 1324">
          <path id="Path_3282" data-name="Path 3282" d="M245.7,804.924a3.078,3.078,0,0,1,2.971-3.248,2.448,2.448,0,0,1,2.359,1.567l-.7.41a1.768,1.768,0,0,0-1.72-1.242c-1.223,0-2.015,1.032-2.015,2.513s.792,2.513,2.015,2.513a1.768,1.768,0,0,0,1.72-1.242l.7.41a2.448,2.448,0,0,1-2.359,1.567A3.078,3.078,0,0,1,245.7,804.924Z" transform="translate(-245.698 -801.676)" fill="#fff"/>
        </g>
        <g id="Group_1325" data-name="Group 1325" transform="translate(8.485 0.095)">
          <path id="Path_3283" data-name="Path 3283" d="M256.658,805.206h-2.9v2.857h-.86v-6.306h.86v2.771h2.9v-2.771h.859v6.306h-.859Z" transform="translate(-252.894 -801.757)" fill="#fff"/>
        </g>
        <g id="Group_1326" data-name="Group 1326" transform="translate(16.157 0.095)">
          <path id="Path_3284" data-name="Path 3284" d="M261.741,801.757h.86l2.34,6.306h-.926l-.526-1.471h-2.685l-.515,1.471H259.4Zm-.736,4.185h2.284l-1.137-3.21Z" transform="translate(-259.401 -801.757)" fill="#fff"/>
        </g>
        <g id="Group_1327" data-name="Group 1327" transform="translate(24.897 0.095)">
          <path id="Path_3285" data-name="Path 3285" d="M266.646,801.757h.8l3.125,4.9v-4.9h.792v6.306h-.8l-3.125-4.9v4.9h-.792Z" transform="translate(-266.646 -801.757)" fill="#fff"/>
        </g>
        <g id="Group_1328" data-name="Group 1328" transform="translate(32.748)">
          <path id="Path_3286" data-name="Path 3286" d="M273.25,804.934a3.045,3.045,0,0,1,2.952-3.258,2.512,2.512,0,0,1,2.408,1.576l-.707.411a1.8,1.8,0,0,0-1.73-1.252c-1.223,0-2.024,1.022-2.024,2.531,0,1.423.706,2.494,2.178,2.494a2.451,2.451,0,0,0,1.041-.21.777.777,0,0,0,.43-.812v-1.548h.86v2.447a3.227,3.227,0,0,1-2.312.86A3.038,3.038,0,0,1,273.25,804.934Z" transform="translate(-273.25 -801.676)" fill="#fff"/>
        </g>
        <g id="Group_1329" data-name="Group 1329" transform="translate(41.767 0.095)">
          <path id="Path_3287" data-name="Path 3287" d="M280.843,801.757h3.764v.679h-2.9v2.043h2.656v.679H281.7v2.225h2.9v.679h-3.764Z" transform="translate(-280.843 -801.757)" fill="#fff"/>
        </g>
        <g id="Group_1330" data-name="Group 1330" transform="translate(52.46 0.095)">
          <path id="Path_3288" data-name="Path 3288" d="M289.837,801.757h.8l3.123,4.9v-4.9h.794v6.306h-.8l-3.123-4.9v4.9h-.794Z" transform="translate(-289.837 -801.757)" fill="#fff"/>
        </g>
        <g id="Group_1331" data-name="Group 1331" transform="translate(59.988 0.095)">
          <path id="Path_3289" data-name="Path 3289" d="M298.51,801.757h.86l2.341,6.306h-.927l-.526-1.471h-2.684l-.516,1.471h-.889Zm-.736,4.185h2.283l-1.137-3.21Z" transform="translate(-296.168 -801.757)" fill="#fff"/>
        </g>
        <g id="Group_1332" data-name="Group 1332" transform="translate(67.364 0.095)">
          <path id="Path_3290" data-name="Path 3290" d="M302.374,801.757h.917l1.863,5.283,1.872-5.283h.869l-2.33,6.306h-.861Z" transform="translate(-302.374 -801.757)" fill="#fff"/>
        </g>
        <g id="Group_1333" data-name="Group 1333" transform="translate(76.483 0.095)">
          <path id="Path_3291" data-name="Path 3291" d="M310.067,801.757h.861v6.306h-.861Z" transform="translate(-310.067 -801.757)" fill="#fff"/>
        </g>
        <g id="Group_1334" data-name="Group 1334" transform="translate(81.009)">
          <path id="Path_3292" data-name="Path 3292" d="M313.855,804.934a3.045,3.045,0,0,1,2.952-3.258,2.51,2.51,0,0,1,2.406,1.576l-.706.411a1.8,1.8,0,0,0-1.73-1.252c-1.223,0-2.024,1.022-2.024,2.531,0,1.423.706,2.494,2.178,2.494a2.451,2.451,0,0,0,1.041-.21.777.777,0,0,0,.43-.812v-1.548h.86v2.447a3.227,3.227,0,0,1-2.312.86A3.037,3.037,0,0,1,313.855,804.934Z" transform="translate(-313.855 -801.676)" fill="#fff"/>
        </g>
        <g id="Group_1335" data-name="Group 1335" transform="translate(89.455 0.095)">
          <path id="Path_3293" data-name="Path 3293" d="M323.3,801.757h.86l2.34,6.306h-.927l-.526-1.471h-2.684l-.516,1.471h-.888Zm-.736,4.185h2.283l-1.137-3.21Z" transform="translate(-320.96 -801.757)" fill="#fff"/>
        </g>
        <g id="Group_1336" data-name="Group 1336" transform="translate(96.735 0.095)">
          <path id="Path_3294" data-name="Path 3294" d="M328.96,802.436h-1.968v-.679h4.8v.679h-1.968v5.627h-.86Z" transform="translate(-326.992 -801.757)" fill="#fff"/>
        </g>
        <g id="Group_1337" data-name="Group 1337" transform="translate(103.545)">
          <path id="Path_3295" data-name="Path 3295" d="M332.768,804.924a2.914,2.914,0,1,1,2.895,3.248A3.08,3.08,0,0,1,332.768,804.924Zm4.891,0c0-1.481-.821-2.513-2-2.513s-2,1.032-2,2.513.821,2.513,2,2.513S337.659,806.405,337.659,804.924Z" transform="translate(-332.768 -801.676)" fill="#fff"/>
        </g>
        <g id="Group_1338" data-name="Group 1338" transform="translate(111.545 0.095)">
          <path id="Path_3296" data-name="Path 3296" d="M339.553,801.757H341.3c1.653,0,2.56.6,2.56,1.7,0,.851-.582,1.4-1.624,1.529v.019c.955.067,1.433.43,1.433,1.462v.544a1.7,1.7,0,0,0,.286,1.052h-.9a1.531,1.531,0,0,1-.258-.994v-.526c0-.907-.335-1.223-1.232-1.223h-1.157v2.743h-.86Zm.86.668v2.256h.861c1.137,0,1.691-.363,1.691-1.128s-.554-1.127-1.691-1.127Z" transform="translate(-339.553 -801.757)" fill="#fff"/>
        </g>
      </g>
      <g id="Group_1356" data-name="Group 1356">
        <g id="Group_1348" data-name="Group 1348" transform="translate(0 1.625)">
          <g id="Group_1340" data-name="Group 1340">
            <path id="Path_3297" data-name="Path 3297" d="M254.687,782.136c2.414,0,6.73,1.016,6.73,3.885v1.753h-2.336v-1.016c0-1.5-2.54-2.26-4.343-2.26-3.607,0-6.4,2.718-6.4,6.755,0,3.911,2.819,7.036,6.475,7.036a7.951,7.951,0,0,0,5.663-2.438l1.371,1.829a9.721,9.721,0,0,1-7.059,3c-5.359,0-9.092-4.14-9.092-9.422A8.863,8.863,0,0,1,254.687,782.136Z" transform="translate(-245.698 -782.136)" fill="#fff"/>
          </g>
          <g id="Group_1341" data-name="Group 1341" transform="translate(37.787 0.305)">
            <path id="Path_3298" data-name="Path 3298" d="M277.469,798.139h.863c.356,0,.534-.2.559-.559L280.11,782.4h2.615l4.216,9.5c.432.964.888,2.26.888,2.26h.051s.457-1.3.889-2.26l4.216-9.5H295.6l1.219,15.185c.025.356.2.559.559.559h.838v2.185h-2.26c-1.144,0-1.549-.483-1.626-1.626l-.736-9.473c-.077-1.066-.051-2.641-.051-2.641h-.051s-.508,1.677-.94,2.641l-3.632,7.873h-2.134l-3.632-7.873c-.432-.94-.964-2.666-.964-2.666h-.051s.026,1.6-.051,2.666l-.711,9.473c-.077,1.143-.482,1.626-1.651,1.626h-2.26Z" transform="translate(-277.469 -782.395)" fill="#fff"/>
          </g>
          <g id="Group_1342" data-name="Group 1342" transform="translate(60.168 0.305)">
            <path id="Path_3299" data-name="Path 3299" d="M297.967,784.579h-1.651V782.4h7.9a5.331,5.331,0,0,1,5.612,5.612,5.392,5.392,0,0,1-5.612,5.688h-3.707v6.629h-2.54Zm5.841,6.933a3.2,3.2,0,0,0,3.4-3.5,3.137,3.137,0,0,0-3.378-3.429h-3.326v6.933Z" transform="translate(-296.316 -782.395)" fill="#fff"/>
          </g>
          <g id="Group_1343" data-name="Group 1343" transform="translate(73.19 0.305)">
            <path id="Path_3300" data-name="Path 3300" d="M307.258,798.139h.356c.456,0,.685-.1.837-.559l5.612-15.185h2.667l5.612,15.185a.731.731,0,0,0,.837.559h.381v2.185h-1.422c-1.27,0-1.675-.305-2.082-1.474l-1.345-3.682h-6.6l-1.346,3.682a1.8,1.8,0,0,1-2.107,1.474h-1.4Zm10.818-5.1-1.955-5.46c-.33-.938-.711-2.514-.711-2.514h-.051s-.356,1.575-.686,2.514l-1.955,5.46Z" transform="translate(-307.258 -782.395)" fill="#fff"/>
          </g>
          <g id="Group_1344" data-name="Group 1344" transform="translate(90.751)">
            <path id="Path_3301" data-name="Path 3301" d="M323.553,796.2a6.522,6.522,0,0,0,4.5,2.159,2.79,2.79,0,0,0,3.073-2.667c0-3.758-8.66-3.174-8.66-8.761,0-2.692,2.362-4.8,5.74-4.8,1.9,0,5.1.864,5.1,3.3v1.473H330.97v-.837c0-.94-1.346-1.626-2.768-1.626-1.93,0-3.149,1.067-3.149,2.412,0,3.631,8.634,2.819,8.634,8.711,0,2.742-2.133,5.1-5.689,5.1a8.012,8.012,0,0,1-5.941-2.667Z" transform="translate(-322.056 -782.136)" fill="#fff"/>
          </g>
          <g id="Group_1345" data-name="Group 1345" transform="translate(104.451)">
            <path id="Path_3302" data-name="Path 3302" d="M335.035,796.2a6.518,6.518,0,0,0,4.495,2.159A2.79,2.79,0,0,0,342.6,795.7c0-3.758-8.659-3.174-8.659-8.761,0-2.692,2.362-4.8,5.739-4.8,1.9,0,5.1.864,5.1,3.3v1.473H342.45v-.837c0-.94-1.347-1.626-2.769-1.626-1.93,0-3.149,1.067-3.149,2.412,0,3.631,8.634,2.819,8.634,8.711,0,2.742-2.133,5.1-5.688,5.1a8.013,8.013,0,0,1-5.943-2.667Z" transform="translate(-333.536 -782.136)" fill="#fff"/>
          </g>
          <g id="Group_1347" data-name="Group 1347" transform="translate(117.601)">
            <g id="Group_1346" data-name="Group 1346">
              <path id="Path_3303" data-name="Path 3303" d="M345.525,782.483h-.836v-.347h2.161v.347h-.836v2.305h-.489Zm1.844-.347h.407l.964,1.6.963-1.6h.384v2.652h-.436V782.92l-.791,1.295H348.6l-.791-1.295v1.868h-.437Z" transform="translate(-344.689 -782.136)" fill="#fff"/>
            </g>
          </g>
        </g>
        <g id="Group_1354" data-name="Group 1354" transform="translate(15.447)">
          <g id="Group_1353" data-name="Group 1353">
            <g id="Group_1351" data-name="Group 1351" transform="translate(7.477 6.99)">
              <g id="Group_1350" data-name="Group 1350">
                <g id="Group_1349" data-name="Group 1349">
                  <path id="Path_3304" data-name="Path 3304" d="M271.483,792.548l-3.173-1.488-3.17,1.488,3.17-5.862Z" transform="translate(-265.141 -786.686)" fill="#93d500"/>
                </g>
              </g>
            </g>
            <g id="Group_1352" data-name="Group 1352">
              <path id="Path_3305" data-name="Path 3305" d="M280.1,791.41l-4.883-1.619a6,6,0,0,0-.921-1.9l.2-.755.336-1.252-1.252.336-.8.215a6.076,6.076,0,0,0-1.7-.789l-1.622-4.886-1.619,4.886a5.9,5.9,0,0,0-1.811.864l-.9-.242-1.253-.335.336,1.252.249.936a5.84,5.84,0,0,0-.762,1.671L258.8,791.41l4.886,1.619a5.829,5.829,0,0,0,.694,1.566l-.3,1.113-.336,1.257,1.257-.336,1.056-.283a6.042,6.042,0,0,0,1.77.83l1.619,4.883,0,0,1.619-4.887a5.933,5.933,0,0,0,1.675-.77l.924.25,1.256.335-.335-1.252-.242-.89a5.959,5.959,0,0,0,.864-1.819Zm-10.648,4.947a4.947,4.947,0,1,1,4.95-4.947A4.948,4.948,0,0,1,269.447,796.357Z" transform="translate(-258.799 -780.758)" fill="#93d500"/>
            </g>
          </g>
        </g>
        <g id="Group_1355" data-name="Group 1355" transform="translate(16.834 1.39)">
          <path id="Path_3306" data-name="Path 3306" d="M270.173,781.938l.3.887a8.481,8.481,0,0,1,7.142,7.139l.885.3A9.324,9.324,0,0,0,270.173,781.938Zm-10.194,8.322.885-.3a8.481,8.481,0,0,1,7.158-7.141l.3-.885A9.322,9.322,0,0,0,259.979,790.26Zm17.637,2.144a8.482,8.482,0,0,1-7.163,7.172l-.3.886a9.325,9.325,0,0,0,8.346-8.354Zm-9.586,7.173a8.482,8.482,0,0,1-7.171-7.182l-.883-.3a9.322,9.322,0,0,0,8.35,8.364Z" transform="translate(-259.975 -781.937)" fill="#93d500"/>
        </g>
      </g>
    </g>
    <g id="Group_1358" data-name="Group 1358" transform="translate(276.585 760.95)">
      <path id="Path_3307" data-name="Path 3307" d="M273.18,766.442l-.569,3.281h-1.082l1.456-8.382,2.8.006a2.736,2.736,0,0,1,2,.687,2.165,2.165,0,0,1,.6,1.828,2.606,2.606,0,0,1-.959,1.895,3.472,3.472,0,0,1-2.253.691Zm.156-.9,1.865.006a2.267,2.267,0,0,0,1.446-.443,1.774,1.774,0,0,0,.661-1.232,1.387,1.387,0,0,0-.294-1.147,1.473,1.473,0,0,0-1.122-.465l-1.987-.006Z" transform="translate(-271.528 -760.88)" fill="#fff"/>
      <path id="Path_3308" data-name="Path 3308" d="M280.912,763.069a2.245,2.245,0,0,1,1.342.427,2.422,2.422,0,0,1,.827,1.141,3.55,3.55,0,0,1,.18,1.593l-.011.126a4.184,4.184,0,0,1-.541,1.644,3.182,3.182,0,0,1-1.118,1.144,2.723,2.723,0,0,1-1.5.385,2.254,2.254,0,0,1-1.338-.426,2.362,2.362,0,0,1-.821-1.13,3.609,3.609,0,0,1-.184-1.572,4.22,4.22,0,0,1,.524-1.738,3.227,3.227,0,0,1,1.126-1.194A2.692,2.692,0,0,1,280.912,763.069Zm-2.119,3.339a3.511,3.511,0,0,0,0,.755,1.852,1.852,0,0,0,.407,1.082,1.213,1.213,0,0,0,.929.42,1.665,1.665,0,0,0,.956-.255,2.174,2.174,0,0,0,.737-.828,3.483,3.483,0,0,0,.386-1.226,5.409,5.409,0,0,0,.016-.891,1.915,1.915,0,0,0-.42-1.1,1.241,1.241,0,0,0-.933-.426,1.7,1.7,0,0,0-1.37.633,3.128,3.128,0,0,0-.7,1.7Z" transform="translate(-270.417 -760.571)" fill="#fff"/>
      <path id="Path_3309" data-name="Path 3309" d="M288.581,767.922l1.986-4.755h1.078l-2.839,6.229h-.845l-.645-4.709-2.246,4.709h-.845l-.674-6.229h1l.38,4.641,2.211-4.641h.841Z" transform="translate(-269.375 -760.553)" fill="#fff"/>
      <path id="Path_3310" data-name="Path 3310" d="M293.063,769.529a2.246,2.246,0,0,1-1.819-.858,2.948,2.948,0,0,1-.553-2.135l.028-.248a4.147,4.147,0,0,1,.551-1.693,3.2,3.2,0,0,1,1.1-1.154,2.584,2.584,0,0,1,1.4-.371,1.98,1.98,0,0,1,1.508.639,2.625,2.625,0,0,1,.6,1.67,4.819,4.819,0,0,1-.022.749l-.064.478h-4.07a2.1,2.1,0,0,0,.279,1.44,1.322,1.322,0,0,0,1.143.617,2.22,2.22,0,0,0,1.7-.83l.6.507a2.729,2.729,0,0,1-1.01.883A2.839,2.839,0,0,1,293.063,769.529Zm.661-5.59a1.52,1.52,0,0,0-1.125.437,3.1,3.1,0,0,0-.763,1.352l3.028.006.024-.092a1.7,1.7,0,0,0-.233-1.206A1.094,1.094,0,0,0,293.724,763.939Z" transform="translate(-268.099 -760.571)" fill="#fff"/>
      <path id="Path_3311" data-name="Path 3311" d="M299.474,764.137l-.489-.052a1.786,1.786,0,0,0-1.578.9l-.765,4.427H295.6l1.082-6.229,1.008-.006-.156.725a1.862,1.862,0,0,1,1.56-.845,1.9,1.9,0,0,1,.5.086Z" transform="translate(-267.217 -760.572)" fill="#fff"/>
      <path id="Path_3312" data-name="Path 3312" d="M301.485,769.529a2.246,2.246,0,0,1-1.819-.858,2.943,2.943,0,0,1-.553-2.135l.028-.248a4.129,4.129,0,0,1,.551-1.693,3.2,3.2,0,0,1,1.1-1.154,2.584,2.584,0,0,1,1.4-.371,1.982,1.982,0,0,1,1.508.639,2.631,2.631,0,0,1,.6,1.67,4.819,4.819,0,0,1-.022.749l-.064.478h-4.07a2.1,2.1,0,0,0,.279,1.44,1.322,1.322,0,0,0,1.143.617,2.22,2.22,0,0,0,1.7-.83l.6.507a2.728,2.728,0,0,1-1.01.883A2.839,2.839,0,0,1,301.485,769.529Zm.661-5.59a1.522,1.522,0,0,0-1.126.437,3.109,3.109,0,0,0-.762,1.352l3.028.006.022-.092a1.7,1.7,0,0,0-.232-1.206A1.094,1.094,0,0,0,302.147,763.939Z" transform="translate(-266.591 -760.571)" fill="#fff"/>
      <path id="Path_3313" data-name="Path 3313" d="M304.282,766.667a4.841,4.841,0,0,1,.523-1.716,2.968,2.968,0,0,1,1.008-1.146,2.307,2.307,0,0,1,1.318-.363,1.949,1.949,0,0,1,1.6.76l.6-3.253h1.04l-1.53,8.843h-.949l.108-.667a2.294,2.294,0,0,1-1.819.783,1.72,1.72,0,0,1-1.376-.677,2.956,2.956,0,0,1-.553-1.753A5.738,5.738,0,0,1,304.282,766.667Zm1,.6a2.174,2.174,0,0,0,.294,1.277,1.061,1.061,0,0,0,.91.465,1.882,1.882,0,0,0,1.606-.908l.5-2.876a1.293,1.293,0,0,0-1.255-.874,1.577,1.577,0,0,0-1.086.371,2.392,2.392,0,0,0-.713,1.086A4.518,4.518,0,0,0,305.283,767.263Z" transform="translate(-265.668 -760.95)" fill="#fff"/>
      <path id="Path_3314" data-name="Path 3314" d="M317.646,766.707a4.857,4.857,0,0,1-.524,1.721,2.938,2.938,0,0,1-.99,1.134,2.255,2.255,0,0,1-1.29.351,1.923,1.923,0,0,1-1.675-.847l-.212.725h-.962l1.538-8.843h1.042l-.628,3.3a2.294,2.294,0,0,1,1.819-.807,1.74,1.74,0,0,1,1.4.663,2.911,2.911,0,0,1,.529,1.762,5.632,5.632,0,0,1-.034.713Zm-.99-.6a2.219,2.219,0,0,0-.282-1.285,1.078,1.078,0,0,0-.915-.468,1.9,1.9,0,0,0-1.647.977l-.466,2.708a1.325,1.325,0,0,0,1.295.972,1.512,1.512,0,0,0,1.068-.362,2.362,2.362,0,0,0,.693-1.079A4.828,4.828,0,0,0,316.655,766.106Z" transform="translate(-264.282 -760.95)" fill="#fff"/>
      <path id="Path_3315" data-name="Path 3315" d="M319.772,767.824l2.217-4.657h1.152l-3.7,7.266a2.238,2.238,0,0,1-1.981,1.5,3.406,3.406,0,0,1-.627-.1l.092-.864.271.029a1.364,1.364,0,0,0,.854-.223,2.015,2.015,0,0,0,.637-.791l.375-.713-1.078-6.1h1.088Z" transform="translate(-263.414 -760.553)" fill="#fff"/>
    </g>
  </g>
</svg>
