<svg id="Group_32" data-name="Group 32" xmlns="http://www.w3.org/2000/svg" width="194" height="32.296" viewBox="0 0 194 32.296">
  <g id="Group_30" data-name="Group 30" transform="translate(0 0.777)">
    <path id="Path_3700" data-name="Path 3700" d="M291.186,283.562l-13.642,31.517h-7.2l-13.6-31.517h7.879l9.59,22.512,9.726-22.512Z" transform="translate(-256.743 -283.562)" fill="#007cba"/>
    <path id="Path_3701" data-name="Path 3701" d="M321.931,308.325H307.3l-2.791,6.754h-7.475l14.048-31.517h7.2l14.093,31.517h-7.654Zm-2.3-5.538-5-12.066-5,12.066Z" transform="translate(-268.893 -283.562)" fill="#007cba"/>
  </g>
  <path id="Path_3702" data-name="Path 3702" d="M367.257,283.562v12.956h-3v-5.312h-5.886v5.312h-3V283.562h3v5.108h5.886v-5.108Z" transform="translate(-286.487 -282.785)" fill="#003b71"/>
  <path id="Path_3703" data-name="Path 3703" d="M385.785,293.585h-7.533a2.656,2.656,0,0,0,2.85,2,3.378,3.378,0,0,0,2.5-.962l1.536,1.666a5.215,5.215,0,0,1-4.109,1.61c-3.443,0-5.682-2.165-5.682-5.126a5.069,5.069,0,0,1,5.312-5.127,4.929,4.929,0,0,1,5.182,5.164C385.84,293.029,385.8,293.344,385.785,293.585Zm-7.57-1.685h4.905a2.487,2.487,0,0,0-4.905,0Z" transform="translate(-292.51 -284.015)" fill="#003b71"/>
  <path id="Path_3704" data-name="Path 3704" d="M401.348,292.067v5.682h-2.7v-1.24a3.269,3.269,0,0,1-3.035,1.388c-2.332,0-3.721-1.3-3.721-3.017,0-1.759,1.24-2.98,4.276-2.98h2.294c0-1.24-.74-1.962-2.294-1.962a4.791,4.791,0,0,0-2.869.925l-1.036-2.017a7.655,7.655,0,0,1,4.294-1.2C399.59,287.643,401.348,289.05,401.348,292.067ZM398.46,294.6v-1.018h-1.98c-1.351,0-1.777.5-1.777,1.166,0,.722.611,1.2,1.629,1.2A2.126,2.126,0,0,0,398.46,294.6Z" transform="translate(-297.499 -284.015)" fill="#003b71"/>
  <path id="Path_3705" data-name="Path 3705" d="M408.829,282.449h2.888v13.733h-2.888Z" transform="translate(-302.607 -282.449)" fill="#003b71"/>
  <path id="Path_3706" data-name="Path 3706" d="M422.656,296.381a4.123,4.123,0,0,1-2.35.629c-2.351,0-3.721-1.2-3.721-3.572v-4.091h-1.537v-2.221h1.537V284.7h2.887v2.424h2.48v2.221h-2.48V293.4a1.161,1.161,0,0,0,1.24,1.314,1.945,1.945,0,0,0,1.166-.37Z" transform="translate(-304.483 -283.128)" fill="#003b71"/>
  <path id="Path_3707" data-name="Path 3707" d="M438.137,290.482v5.7H435.25v-5.256c0-1.61-.74-2.35-2.018-2.35-1.388,0-2.387.851-2.387,2.683v4.923h-2.888V282.449h2.888v4.812a4.377,4.377,0,0,1,3.165-1.185C436.361,286.077,438.137,287.446,438.137,290.482Z" transform="translate(-308.375 -282.449)" fill="#003b71"/>
  <path id="Path_3708" data-name="Path 3708" d="M354.491,316.2c0-3.906,3-6.7,7.033-6.7a6.688,6.688,0,0,1,5.33,2.3l-1.925,1.777a4.168,4.168,0,0,0-3.257-1.518,4.146,4.146,0,0,0,0,8.292,4.128,4.128,0,0,0,3.257-1.537l1.925,1.778a7.122,7.122,0,0,1-12.364-4.387Z" transform="translate(-286.22 -290.607)" fill="#003b71"/>
  <path id="Path_3709" data-name="Path 3709" d="M373.315,319.027c0-3,2.313-5.127,5.479-5.127a5.137,5.137,0,1,1,0,10.254C375.628,324.154,373.315,322.025,373.315,319.027Zm8.014,0a2.553,2.553,0,1,0-2.535,2.757A2.513,2.513,0,0,0,381.329,319.027Z" transform="translate(-291.897 -291.934)" fill="#003b71"/>
  <path id="Path_3710" data-name="Path 3710" d="M401.69,318.305v5.7H398.8v-5.256c0-1.611-.74-2.351-2.017-2.351-1.388,0-2.388.852-2.388,2.684v4.923H391.51v-9.958h2.758v1.166a4.359,4.359,0,0,1,3.295-1.314C399.913,313.9,401.69,315.27,401.69,318.305Z" transform="translate(-297.384 -291.934)" fill="#003b71"/>
  <path id="Path_3711" data-name="Path 3711" d="M419.664,318.305v5.7h-2.887v-5.256c0-1.611-.741-2.351-2.018-2.351-1.388,0-2.387.852-2.387,2.684v4.923h-2.887v-9.958h2.757v1.166a4.36,4.36,0,0,1,3.294-1.314C417.887,313.9,419.664,315.27,419.664,318.305Z" transform="translate(-302.804 -291.934)" fill="#003b71"/>
  <path id="Path_3712" data-name="Path 3712" d="M436.886,319.841h-7.533a2.654,2.654,0,0,0,2.85,2,3.377,3.377,0,0,0,2.5-.962l1.536,1.666a5.215,5.215,0,0,1-4.109,1.61c-3.443,0-5.682-2.165-5.682-5.126a5.07,5.07,0,0,1,5.312-5.127,4.929,4.929,0,0,1,5.182,5.164C436.941,319.286,436.9,319.6,436.886,319.841Zm-7.57-1.684h4.9a2.487,2.487,0,0,0-4.9,0Z" transform="translate(-307.92 -291.934)" fill="#003b71"/>
  <path id="Path_3713" data-name="Path 3713" d="M443.087,319.027c0-3,2.314-5.127,5.553-5.127a4.575,4.575,0,0,1,4.461,2.535l-2.24,1.2a2.482,2.482,0,0,0-2.239-1.37,2.762,2.762,0,0,0,0,5.516,2.449,2.449,0,0,0,2.239-1.37l2.24,1.222a4.62,4.62,0,0,1-4.461,2.517C445.4,324.154,443.087,322.025,443.087,319.027Z" transform="translate(-312.938 -291.934)" fill="#003b71"/>
  <path id="Path_3714" data-name="Path 3714" d="M466.184,322.637a4.128,4.128,0,0,1-2.35.629c-2.351,0-3.721-1.2-3.721-3.572V315.6h-1.536v-2.221h1.536v-2.425H463v2.425h2.48V315.6H463v4.053a1.161,1.161,0,0,0,1.24,1.314,1.948,1.948,0,0,0,1.166-.37Z" transform="translate(-317.609 -291.046)" fill="#003b71"/>
  <path id="Path_3715" data-name="Path 3715" d="M471.585,317.274c0-4.425,3.24-7.776,8.054-7.776,2.3,0,4.165.814,5.091,2.3l-2.166,1.777a3.54,3.54,0,0,0-3.129-1.518,4.757,4.757,0,0,0-4.814,5.036c0,1.963,1.3,3.259,3.628,3.259a4.513,4.513,0,0,0,3.444-1.5l1.778,1.815a6.839,6.839,0,0,1-5.481,2.241C474.029,322.9,471.585,320.607,471.585,317.274Z" transform="translate(-321.532 -290.606)" fill="#76bc43"/>
  <path id="Path_3716" data-name="Path 3716" d="M499.666,318.776l2.259,4H498.76l-2.037-3.628h-2.555l-.721,3.628h-3.018l2.592-12.959H498.3c3.221,0,5.073,1.481,5.073,4.017A4.948,4.948,0,0,1,499.666,318.776Zm.666-4.665c0-1.259-.888-1.852-2.425-1.852h-2.37l-.907,4.5h2.555C499.167,316.758,500.333,315.833,500.333,314.111Z" transform="translate(-327.214 -290.702)" fill="#76bc43"/>
  <path id="Path_3717" data-name="Path 3717" d="M527.089,309.816l-2.573,12.959H521.7l1.518-7.7-4.943,6.332h-1.333L514.277,315l-1.555,7.776h-2.815l2.593-12.959h2.444l3.24,8.072,6.332-8.072Z" transform="translate(-333.089 -290.702)" fill="#76bc43"/>
</svg>
